<svg id="visual" viewBox="0 0 675 900" width="675" height="900" xmlns="http://www.w3.org/2000/svg" xmlns:xlink="http://www.w3.org/1999/xlink" version="1.1"><g stroke-width="1" stroke-linejoin="bevel"><path d="M384 470L301 500L379 491Z" fill="#3540a2" stroke="#3540a2"></path><path d="M384 470L276 469L301 500Z" fill="#4e5def" stroke="#4e5def"></path><path d="M276 469L247 532L301 500Z" fill="#3540a2" stroke="#3540a2"></path><path d="M290 591L419 545L379 491Z" fill="#3540a2" stroke="#3540a2"></path><path d="M290 591L379 491L301 500Z" fill="#3f4cc0" stroke="#3f4cc0"></path><path d="M379 491L419 545L384 470Z" fill="#3f4cc0" stroke="#3f4cc0"></path><path d="M384 470L314 346L276 469Z" fill="#3540a2" stroke="#3540a2"></path><path d="M276 469L202 421L247 532Z" fill="#5463ff" stroke="#5463ff"></path><path d="M466 398L412 368L384 470Z" fill="#3540a2" stroke="#3540a2"></path><path d="M384 470L412 368L314 346Z" fill="#3540a2" stroke="#3540a2"></path><path d="M247 532L290 591L301 500Z" fill="#2c3584" stroke="#2c3584"></path><path d="M247 532L243 565L290 591Z" fill="#242a68" stroke="#242a68"></path><path d="M314 346L226 384L276 469Z" fill="#313b93" stroke="#313b93"></path><path d="M247 532L149 516L243 565Z" fill="#4e5def" stroke="#4e5def"></path><path d="M226 384L202 421L276 469Z" fill="#4957df" stroke="#4957df"></path><path d="M419 545L484 472L384 470Z" fill="#4957df" stroke="#4957df"></path><path d="M484 472L466 398L384 470Z" fill="#3540a2" stroke="#3540a2"></path><path d="M261 686L337 625L290 591Z" fill="#242a68" stroke="#242a68"></path><path d="M290 591L337 625L419 545Z" fill="#4957df" stroke="#4957df"></path><path d="M412 368L311 310L314 346Z" fill="#4e5def" stroke="#4e5def"></path><path d="M314 346L251 277L226 384Z" fill="#4957df" stroke="#4957df"></path><path d="M301 262L311 310L390 260Z" fill="#3f4cc0" stroke="#3f4cc0"></path><path d="M419 545L510 503L484 472Z" fill="#282f76" stroke="#282f76"></path><path d="M484 472L544 449L466 398Z" fill="#313b93" stroke="#313b93"></path><path d="M524 560L510 503L419 545Z" fill="#313b93" stroke="#313b93"></path><path d="M337 625L382 643L419 545Z" fill="#282f76" stroke="#282f76"></path><path d="M202 421L149 516L247 532Z" fill="#4451d0" stroke="#4451d0"></path><path d="M243 565L261 686L290 591Z" fill="#242a68" stroke="#242a68"></path><path d="M226 384L159 386L202 421Z" fill="#3f4cc0" stroke="#3f4cc0"></path><path d="M202 421L122 450L149 516Z" fill="#313b93" stroke="#313b93"></path><path d="M251 277L159 386L226 384Z" fill="#3f4cc0" stroke="#3f4cc0"></path><path d="M487 636L524 560L419 545Z" fill="#2c3584" stroke="#2c3584"></path><path d="M560 550L544 449L510 503Z" fill="#4451d0" stroke="#4451d0"></path><path d="M510 503L544 449L484 472Z" fill="#4451d0" stroke="#4451d0"></path><path d="M544 449L505 345L466 398Z" fill="#282f76" stroke="#282f76"></path><path d="M466 398L483 313L412 368Z" fill="#2c3584" stroke="#2c3584"></path><path d="M390 260L311 310L412 368Z" fill="#313b93" stroke="#313b93"></path><path d="M311 310L251 277L314 346Z" fill="#3f4cc0" stroke="#3f4cc0"></path><path d="M301 262L251 277L311 310Z" fill="#3540a2" stroke="#3540a2"></path><path d="M505 345L483 313L466 398Z" fill="#242a68" stroke="#242a68"></path><path d="M159 386L122 450L202 421Z" fill="#4957df" stroke="#4957df"></path><path d="M483 313L390 260L412 368Z" fill="#3540a2" stroke="#3540a2"></path><path d="M382 643L487 636L419 545Z" fill="#3540a2" stroke="#3540a2"></path><path d="M311 174L250 263L301 262Z" fill="#242a68" stroke="#242a68"></path><path d="M301 262L250 263L251 277Z" fill="#313b93" stroke="#313b93"></path><path d="M151 250L113 300L159 386Z" fill="#313b93" stroke="#313b93"></path><path d="M122 450L114 509L149 516Z" fill="#4e5def" stroke="#4e5def"></path><path d="M140 618L261 686L243 565Z" fill="#4957df" stroke="#4957df"></path><path d="M140 618L243 565L149 516Z" fill="#313b93" stroke="#313b93"></path><path d="M337 625L326 744L382 643Z" fill="#242a68" stroke="#242a68"></path><path d="M382 643L439 691L487 636Z" fill="#3f4cc0" stroke="#3f4cc0"></path><path d="M579 577L560 550L524 560Z" fill="#313b93" stroke="#313b93"></path><path d="M524 560L560 550L510 503Z" fill="#3a46b1" stroke="#3a46b1"></path><path d="M159 386L107 405L122 450Z" fill="#3540a2" stroke="#3540a2"></path><path d="M122 450L58 433L114 509Z" fill="#3540a2" stroke="#3540a2"></path><path d="M110 303L107 405L159 386Z" fill="#313b93" stroke="#313b93"></path><path d="M237 716L263 701L261 686Z" fill="#313b93" stroke="#313b93"></path><path d="M261 686L326 744L337 625Z" fill="#4451d0" stroke="#4451d0"></path><path d="M380 759L439 691L382 643Z" fill="#3540a2" stroke="#3540a2"></path><path d="M114 509L140 618L149 516Z" fill="#4957df" stroke="#4957df"></path><path d="M561 642L579 577L524 560Z" fill="#242a68" stroke="#242a68"></path><path d="M560 550L623 441L544 449Z" fill="#3f4cc0" stroke="#3f4cc0"></path><path d="M561 642L524 560L487 636Z" fill="#313b93" stroke="#313b93"></path><path d="M140 649L237 716L261 686Z" fill="#313b93" stroke="#313b93"></path><path d="M263 701L326 744L261 686Z" fill="#4451d0" stroke="#4451d0"></path><path d="M52 622L140 649L140 618Z" fill="#5463ff" stroke="#5463ff"></path><path d="M140 618L140 649L261 686Z" fill="#5463ff" stroke="#5463ff"></path><path d="M483 313L431 220L390 260Z" fill="#4451d0" stroke="#4451d0"></path><path d="M390 260L387 199L301 262Z" fill="#5463ff" stroke="#5463ff"></path><path d="M522 214L431 220L483 313Z" fill="#242a68" stroke="#242a68"></path><path d="M634 354L536 286L505 345Z" fill="#3a46b1" stroke="#3a46b1"></path><path d="M505 345L536 286L483 313Z" fill="#4957df" stroke="#4957df"></path><path d="M634 354L505 345L544 449Z" fill="#2c3584" stroke="#2c3584"></path><path d="M237 716L326 744L263 701Z" fill="#3540a2" stroke="#3540a2"></path><path d="M431 220L387 199L390 260Z" fill="#3f4cc0" stroke="#3f4cc0"></path><path d="M151 250L251 277L250 263Z" fill="#242a68" stroke="#242a68"></path><path d="M151 250L159 386L251 277Z" fill="#3540a2" stroke="#3540a2"></path><path d="M0 350L58 433L107 405Z" fill="#3f4cc0" stroke="#3f4cc0"></path><path d="M107 405L58 433L122 450Z" fill="#3540a2" stroke="#3540a2"></path><path d="M114 509L52 622L140 618Z" fill="#3f4cc0" stroke="#3f4cc0"></path><path d="M113 300L110 303L159 386Z" fill="#4451d0" stroke="#4451d0"></path><path d="M596 679L561 642L551 742Z" fill="#4e5def" stroke="#4e5def"></path><path d="M551 742L561 642L487 636Z" fill="#5463ff" stroke="#5463ff"></path><path d="M623 441L560 550L675 525Z" fill="#282f76" stroke="#282f76"></path><path d="M675 472L623 441L675 525Z" fill="#313b93" stroke="#313b93"></path><path d="M245 150L151 250L250 263Z" fill="#4957df" stroke="#4957df"></path><path d="M113 300L76 234L110 303Z" fill="#3a46b1" stroke="#3a46b1"></path><path d="M326 744L380 759L382 643Z" fill="#313b93" stroke="#313b93"></path><path d="M387 199L311 174L301 262Z" fill="#4957df" stroke="#4957df"></path><path d="M380 759L443 763L439 691Z" fill="#4e5def" stroke="#4e5def"></path><path d="M616 248L522 214L536 286Z" fill="#3540a2" stroke="#3540a2"></path><path d="M536 286L522 214L483 313Z" fill="#282f76" stroke="#282f76"></path><path d="M433 120L373 112L387 199Z" fill="#3540a2" stroke="#3540a2"></path><path d="M387 199L373 112L311 174Z" fill="#4957df" stroke="#4957df"></path><path d="M623 441L634 354L544 449Z" fill="#313b93" stroke="#313b93"></path><path d="M0 523L52 622L114 509Z" fill="#3540a2" stroke="#3540a2"></path><path d="M140 649L128 737L237 716Z" fill="#3540a2" stroke="#3540a2"></path><path d="M551 742L487 636L439 691Z" fill="#313b93" stroke="#313b93"></path><path d="M561 642L675 611L579 577Z" fill="#3f4cc0" stroke="#3f4cc0"></path><path d="M623 441L675 364L634 354Z" fill="#4451d0" stroke="#4451d0"></path><path d="M296 91L245 150L311 174Z" fill="#242a68" stroke="#242a68"></path><path d="M311 174L245 150L250 263Z" fill="#3a46b1" stroke="#3a46b1"></path><path d="M0 350L0 476L58 433Z" fill="#3a46b1" stroke="#3a46b1"></path><path d="M58 433L0 476L114 509Z" fill="#4e5def" stroke="#4e5def"></path><path d="M675 525L560 550L579 577Z" fill="#282f76" stroke="#282f76"></path><path d="M36 700L128 737L140 649Z" fill="#3a46b1" stroke="#3a46b1"></path><path d="M237 716L253 827L326 744Z" fill="#2c3584" stroke="#2c3584"></path><path d="M326 744L404 812L380 759Z" fill="#313b93" stroke="#313b93"></path><path d="M0 476L0 523L114 509Z" fill="#3540a2" stroke="#3540a2"></path><path d="M675 611L675 525L579 577Z" fill="#282f76" stroke="#282f76"></path><path d="M443 763L551 742L439 691Z" fill="#4957df" stroke="#4957df"></path><path d="M380 759L404 812L443 763Z" fill="#4e5def" stroke="#4e5def"></path><path d="M443 763L445 851L551 742Z" fill="#242a68" stroke="#242a68"></path><path d="M271 861L404 812L326 744Z" fill="#3f4cc0" stroke="#3f4cc0"></path><path d="M151 250L76 234L113 300Z" fill="#3540a2" stroke="#3540a2"></path><path d="M110 303L0 350L107 405Z" fill="#4957df" stroke="#4957df"></path><path d="M90 164L76 234L151 250Z" fill="#3f4cc0" stroke="#3f4cc0"></path><path d="M675 472L675 364L623 441Z" fill="#4957df" stroke="#4957df"></path><path d="M638 269L616 248L536 286Z" fill="#4957df" stroke="#4957df"></path><path d="M638 269L536 286L634 354Z" fill="#3540a2" stroke="#3540a2"></path><path d="M0 282L0 350L110 303Z" fill="#242a68" stroke="#242a68"></path><path d="M515 155L431 220L522 214Z" fill="#4e5def" stroke="#4e5def"></path><path d="M433 120L387 199L431 220Z" fill="#4957df" stroke="#4957df"></path><path d="M608 179L515 155L522 214Z" fill="#4451d0" stroke="#4451d0"></path><path d="M675 304L638 269L634 354Z" fill="#3a46b1" stroke="#3a46b1"></path><path d="M0 523L0 602L52 622Z" fill="#3f4cc0" stroke="#3f4cc0"></path><path d="M52 622L36 700L140 649Z" fill="#313b93" stroke="#313b93"></path><path d="M515 155L433 120L431 220Z" fill="#3a46b1" stroke="#3a46b1"></path><path d="M585 785L583 739L551 742Z" fill="#3a46b1" stroke="#3a46b1"></path><path d="M551 742L583 739L596 679Z" fill="#282f76" stroke="#282f76"></path><path d="M596 679L675 611L561 642Z" fill="#2c3584" stroke="#2c3584"></path><path d="M675 685L675 611L596 679Z" fill="#242a68" stroke="#242a68"></path><path d="M128 737L253 827L237 716Z" fill="#4451d0" stroke="#4451d0"></path><path d="M675 364L675 304L634 354Z" fill="#5463ff" stroke="#5463ff"></path><path d="M675 186L608 179L616 248Z" fill="#3540a2" stroke="#3540a2"></path><path d="M0 650L36 700L52 622Z" fill="#3f4cc0" stroke="#3f4cc0"></path><path d="M231 900L271 861L253 827Z" fill="#5463ff" stroke="#5463ff"></path><path d="M373 112L296 91L311 174Z" fill="#3540a2" stroke="#3540a2"></path><path d="M146 120L90 164L151 250Z" fill="#4957df" stroke="#4957df"></path><path d="M387 37L296 91L373 112Z" fill="#4451d0" stroke="#4451d0"></path><path d="M0 602L0 650L52 622Z" fill="#242a68" stroke="#242a68"></path><path d="M0 215L0 282L76 234Z" fill="#3a46b1" stroke="#3a46b1"></path><path d="M76 234L0 282L110 303Z" fill="#282f76" stroke="#282f76"></path><path d="M146 120L151 250L245 150Z" fill="#282f76" stroke="#282f76"></path><path d="M430 900L445 851L404 812Z" fill="#313b93" stroke="#313b93"></path><path d="M404 812L445 851L443 763Z" fill="#4451d0" stroke="#4451d0"></path><path d="M127 851L253 827L128 737Z" fill="#3a46b1" stroke="#3a46b1"></path><path d="M253 827L271 861L326 744Z" fill="#2c3584" stroke="#2c3584"></path><path d="M616 248L608 179L522 214Z" fill="#3f4cc0" stroke="#3f4cc0"></path><path d="M515 155L510 97L433 120Z" fill="#5463ff" stroke="#5463ff"></path><path d="M675 242L616 248L638 269Z" fill="#4957df" stroke="#4957df"></path><path d="M213 39L146 120L245 150Z" fill="#242a68" stroke="#242a68"></path><path d="M675 723L596 679L583 739Z" fill="#3f4cc0" stroke="#3f4cc0"></path><path d="M675 723L675 685L596 679Z" fill="#4957df" stroke="#4957df"></path><path d="M562 864L585 785L551 742Z" fill="#4957df" stroke="#4957df"></path><path d="M37 748L128 737L36 700Z" fill="#4957df" stroke="#4957df"></path><path d="M37 748L97 792L128 737Z" fill="#3f4cc0" stroke="#3f4cc0"></path><path d="M675 304L675 242L638 269Z" fill="#2c3584" stroke="#2c3584"></path><path d="M0 754L37 748L36 700Z" fill="#4451d0" stroke="#4451d0"></path><path d="M608 179L510 97L515 155Z" fill="#313b93" stroke="#313b93"></path><path d="M433 120L387 37L373 112Z" fill="#242a68" stroke="#242a68"></path><path d="M585 785L675 723L583 739Z" fill="#282f76" stroke="#282f76"></path><path d="M0 158L0 215L90 164Z" fill="#242a68" stroke="#242a68"></path><path d="M90 164L0 215L76 234Z" fill="#4957df" stroke="#4957df"></path><path d="M213 39L121 98L146 120Z" fill="#3a46b1" stroke="#3a46b1"></path><path d="M146 120L121 98L90 164Z" fill="#5463ff" stroke="#5463ff"></path><path d="M322 900L351 900L404 812Z" fill="#282f76" stroke="#282f76"></path><path d="M445 851L562 864L551 742Z" fill="#4451d0" stroke="#4451d0"></path><path d="M322 900L404 812L271 861Z" fill="#313b93" stroke="#313b93"></path><path d="M231 900L322 900L271 861Z" fill="#4451d0" stroke="#4451d0"></path><path d="M0 805L127 851L97 792Z" fill="#242a68" stroke="#242a68"></path><path d="M97 792L127 851L128 737Z" fill="#3540a2" stroke="#3540a2"></path><path d="M483 40L387 37L433 120Z" fill="#3a46b1" stroke="#3a46b1"></path><path d="M296 91L213 39L245 150Z" fill="#4451d0" stroke="#4451d0"></path><path d="M351 900L430 900L404 812Z" fill="#4e5def" stroke="#4e5def"></path><path d="M585 785L675 801L675 723Z" fill="#5463ff" stroke="#5463ff"></path><path d="M0 650L0 754L36 700Z" fill="#2c3584" stroke="#2c3584"></path><path d="M37 748L0 805L97 792Z" fill="#4957df" stroke="#4957df"></path><path d="M675 242L675 186L616 248Z" fill="#4451d0" stroke="#4451d0"></path><path d="M608 179L591 38L510 97Z" fill="#4451d0" stroke="#4451d0"></path><path d="M127 851L231 900L253 827Z" fill="#4451d0" stroke="#4451d0"></path><path d="M265 0L213 39L296 91Z" fill="#2c3584" stroke="#2c3584"></path><path d="M505 900L562 864L445 851Z" fill="#2c3584" stroke="#2c3584"></path><path d="M510 97L483 40L433 120Z" fill="#4e5def" stroke="#4e5def"></path><path d="M591 38L483 40L510 97Z" fill="#3f4cc0" stroke="#3f4cc0"></path><path d="M56 73L90 164L121 98Z" fill="#2c3584" stroke="#2c3584"></path><path d="M56 73L0 158L90 164Z" fill="#4451d0" stroke="#4451d0"></path><path d="M430 900L505 900L445 851Z" fill="#4451d0" stroke="#4451d0"></path><path d="M675 900L675 801L562 864Z" fill="#282f76" stroke="#282f76"></path><path d="M562 864L675 801L585 785Z" fill="#4451d0" stroke="#4451d0"></path><path d="M430 0L403 0L387 37Z" fill="#242a68" stroke="#242a68"></path><path d="M387 37L265 0L296 91Z" fill="#4451d0" stroke="#4451d0"></path><path d="M127 851L136 900L231 900Z" fill="#4451d0" stroke="#4451d0"></path><path d="M111 900L136 900L127 851Z" fill="#242a68" stroke="#242a68"></path><path d="M0 754L0 805L37 748Z" fill="#4e5def" stroke="#4e5def"></path><path d="M403 0L265 0L387 37Z" fill="#5463ff" stroke="#5463ff"></path><path d="M114 0L56 73L121 98Z" fill="#242a68" stroke="#242a68"></path><path d="M265 0L249 0L213 39Z" fill="#242a68" stroke="#242a68"></path><path d="M483 40L430 0L387 37Z" fill="#242a68" stroke="#242a68"></path><path d="M0 900L111 900L127 851Z" fill="#3a46b1" stroke="#3a46b1"></path><path d="M114 0L121 98L213 39Z" fill="#3a46b1" stroke="#3a46b1"></path><path d="M505 900L581 900L562 864Z" fill="#4e5def" stroke="#4e5def"></path><path d="M675 81L591 38L608 179Z" fill="#2c3584" stroke="#2c3584"></path><path d="M483 40L564 0L430 0Z" fill="#4957df" stroke="#4957df"></path><path d="M675 186L675 81L608 179Z" fill="#3540a2" stroke="#3540a2"></path><path d="M249 0L114 0L213 39Z" fill="#4957df" stroke="#4957df"></path><path d="M606 0L564 0L591 38Z" fill="#313b93" stroke="#313b93"></path><path d="M591 38L564 0L483 40Z" fill="#2c3584" stroke="#2c3584"></path><path d="M675 0L606 0L591 38Z" fill="#242a68" stroke="#242a68"></path><path d="M0 805L0 900L127 851Z" fill="#3a46b1" stroke="#3a46b1"></path><path d="M581 900L675 900L562 864Z" fill="#282f76" stroke="#282f76"></path><path d="M43 0L0 35L56 73Z" fill="#242a68" stroke="#242a68"></path><path d="M56 73L0 35L0 158Z" fill="#3f4cc0" stroke="#3f4cc0"></path><path d="M114 0L43 0L56 73Z" fill="#4451d0" stroke="#4451d0"></path><path d="M43 0L0 0L0 35Z" fill="#4451d0" stroke="#4451d0"></path><path d="M675 81L675 0L591 38Z" fill="#4957df" stroke="#4957df"></path></g></svg>