<svg width="270" height="318" viewBox="0 0 270 318" fill="none" xmlns="http://www.w3.org/2000/svg">
<g clip-path="url(#clip0_12_2)">
<path opacity="0.2" d="M121.443 301.814C188.514 301.814 242.886 247.574 242.886 180.667C242.886 113.759 188.514 59.5199 121.443 59.5199C54.372 59.5199 0 113.759 0 180.667C0 247.574 54.372 301.814 121.443 301.814Z" fill="#367CFF"/>
<path d="M9.46219 282.276C4.26722 271.106 1.57348 258.942 1.56828 246.629C1.56307 234.316 4.24654 222.15 9.43206 210.976C14.6176 199.802 22.1807 189.889 31.5955 181.926C41.0103 173.964 52.0508 168.142 63.9493 164.867L71.1756 190.927C63.0702 193.156 55.5488 197.119 49.1345 202.541C42.7203 207.964 37.5671 214.715 34.0336 222.325C30.5 229.936 28.6709 238.223 28.6733 246.61C28.6757 254.997 30.5097 263.283 34.0477 270.892L9.46219 282.276Z" fill="#367CFF"/>
<path d="M10.8801 318C9.3788 318.001 7.90654 317.588 6.62639 316.805C5.34625 316.023 4.30821 314.902 3.62728 313.568C1.72475 309.841 0.576754 305.776 0.248833 301.607C-0.0790868 297.437 0.419494 293.244 1.71611 289.266C4.33474 281.233 10.045 274.567 17.5906 270.734C21.3268 268.836 25.4012 267.691 29.5811 267.364C33.761 267.037 37.9645 267.534 41.9517 268.828C50.0042 271.44 56.6867 277.136 60.529 284.663C61.0231 285.614 61.3237 286.652 61.4137 287.719C61.5036 288.785 61.381 289.859 61.053 290.878C60.7249 291.897 60.1979 292.842 59.5024 293.657C58.8068 294.472 57.9564 295.142 57.0002 295.627C56.0439 296.113 55.0008 296.405 53.9309 296.487C52.861 296.569 51.7854 296.438 50.7662 296.103C49.7471 295.769 48.8044 295.236 47.9926 294.536C47.1807 293.836 46.5158 292.982 46.0361 292.025C45.1055 290.192 43.8216 288.56 42.2578 287.222C40.694 285.885 38.8812 284.868 36.923 284.23C34.9648 283.592 32.8997 283.346 30.846 283.506C28.7923 283.665 26.7904 284.228 24.9548 285.16C23.1191 286.092 21.4859 287.377 20.1486 288.94C18.8113 290.503 17.7961 292.313 17.1613 294.268C16.5265 296.223 16.2844 298.284 16.4489 300.332C16.6135 302.38 17.1814 304.376 18.1202 306.205C18.7507 307.442 19.053 308.818 18.9982 310.205C18.9434 311.591 18.5333 312.94 17.8071 314.123C17.0809 315.305 16.0629 316.283 14.8502 316.962C13.6375 317.64 12.2706 317.998 10.8801 318V318Z" fill="#292A2E"/>
<path d="M221.056 179.856C209.633 189.587 195.813 196.099 181.023 198.717L176.251 172.099C189.401 169.734 201.326 162.905 210.003 152.769C218.681 142.633 223.576 129.815 223.859 116.488L250.958 117.052C250.538 138.769 241.742 159.488 226.401 174.902C224.68 176.636 222.899 178.287 221.056 179.856Z" fill="#367CFF"/>
<path d="M258.748 116.279C254.136 120.188 248.505 122.709 242.511 123.548C236.518 124.387 230.409 123.509 224.896 121.017C219.384 118.525 214.695 114.522 211.375 109.473C208.056 104.425 206.244 98.5391 206.15 92.5024C206.129 90.3592 206.959 88.2949 208.459 86.7603C209.959 85.2257 212.006 84.3456 214.155 84.3122C216.303 84.2788 218.377 85.0949 219.924 86.5821C221.471 88.0693 222.365 90.1069 222.411 92.2497C222.476 96.3933 224.188 100.342 227.171 103.226C230.154 106.11 234.163 107.695 238.316 107.63C242.47 107.566 246.428 105.858 249.32 102.883C252.211 99.907 253.799 95.9076 253.735 91.764C253.701 89.6129 254.526 87.5366 256.027 85.9918C257.528 84.4471 259.582 83.5605 261.739 83.527C263.895 83.4936 265.977 84.316 267.525 85.8135C269.074 87.3109 269.962 89.3606 269.996 91.5118C270.073 95.6953 269.317 99.8524 267.772 103.743C266.227 107.633 263.924 111.179 260.996 114.175C260.277 114.916 259.527 115.617 258.748 116.279Z" fill="#292A2E"/>
<path d="M200.747 0.618563L193.371 21.9575C193.324 22.0935 193.31 22.2386 193.33 22.3811C193.349 22.5236 193.402 22.6595 193.484 22.7778C193.566 22.8962 193.675 22.9937 193.801 23.0624C193.928 23.1311 194.069 23.1692 194.213 23.1735L199.189 23.3217C199.335 23.326 199.478 23.365 199.606 23.4353C199.734 23.5057 199.843 23.6055 199.925 23.7263C200.006 23.8472 200.058 23.9857 200.075 24.1304C200.092 24.275 200.075 24.4217 200.024 24.5583L191.815 46.6043C191.738 46.8105 191.739 47.0374 191.816 47.2435C191.893 47.4496 192.041 47.6213 192.235 47.7272C192.428 47.8331 192.653 47.8663 192.869 47.8206C193.084 47.7749 193.276 47.6534 193.41 47.4782L212.738 22.0661C212.823 21.9535 212.882 21.8227 212.908 21.6839C212.935 21.5451 212.929 21.402 212.891 21.2659C212.853 21.1297 212.784 21.0041 212.69 20.8989C212.595 20.7937 212.477 20.7117 212.346 20.6593L206.557 18.3552C206.444 18.3102 206.341 18.2431 206.254 18.1579C206.167 18.0728 206.097 17.9712 206.05 17.8591C206.003 17.7471 205.978 17.6267 205.978 17.5051C205.978 17.3835 206.002 17.2631 206.049 17.1509L212.54 1.59488C212.597 1.45778 212.62 1.30889 212.607 1.16099C212.594 1.01308 212.545 0.870591 212.464 0.745745C212.384 0.620899 212.274 0.51743 212.145 0.444222C212.015 0.371014 211.87 0.330254 211.721 0.325444L201.646 4.31768e-06C201.45 -0.00631998 201.256 0.0503384 201.095 0.161665C200.933 0.272991 200.811 0.433124 200.747 0.618563V0.618563Z" fill="#367CFF"/>
<path d="M12.3483 98.552L20.943 115.226C20.9975 115.332 21.0263 115.45 21.027 115.57C21.0277 115.689 21.0003 115.807 20.947 115.914C20.8937 116.021 20.816 116.114 20.7201 116.185C20.6242 116.257 20.5128 116.305 20.3949 116.325L16.3212 117.034C16.2018 117.055 16.089 117.104 15.9922 117.177C15.8955 117.25 15.8175 117.345 15.7648 117.454C15.712 117.563 15.686 117.683 15.6889 117.804C15.6917 117.925 15.7234 118.043 15.7812 118.15L25.1458 135.306C25.2316 135.467 25.2572 135.653 25.2178 135.831C25.1783 136.008 25.0766 136.166 24.9309 136.275C24.7851 136.385 24.605 136.439 24.4229 136.427C24.2409 136.416 24.0689 136.34 23.938 136.213L5.03348 117.601C4.94996 117.518 4.88664 117.418 4.84843 117.307C4.81023 117.196 4.79816 117.078 4.81318 116.961C4.8282 116.845 4.86989 116.734 4.93502 116.636C5.00015 116.538 5.08696 116.457 5.18872 116.398L9.67502 113.821C9.76266 113.77 9.83938 113.703 9.90072 113.623C9.96207 113.542 10.0068 113.451 10.0324 113.353C10.058 113.255 10.0639 113.153 10.0497 113.053C10.0356 112.953 10.0016 112.857 9.94995 112.77L2.76828 100.747C2.7054 100.641 2.66917 100.521 2.66268 100.398C2.65619 100.275 2.67963 100.152 2.73101 100.04C2.78238 99.9284 2.86016 99.8305 2.9577 99.755C3.05525 99.6795 3.16965 99.6287 3.29115 99.6069L11.5361 98.1512C11.6967 98.1229 11.862 98.1466 12.0081 98.2187C12.1542 98.2908 12.2734 98.4076 12.3483 98.552V98.552Z" fill="#292A2E"/>
<path d="M45.7481 166.286L63.7172 267.664C66.0399 280.769 72.9155 292.639 83.1372 301.191C93.3589 309.744 106.274 314.431 119.615 314.431V314.431C132.621 314.432 145.233 309.976 155.341 301.811C165.449 293.645 172.439 282.264 175.142 269.572L197.139 166.285L45.7481 166.286Z" fill="#367CFF"/>
<path d="M121.443 188.611C163.249 188.611 197.138 178.616 197.138 166.286C197.138 153.956 163.249 143.961 121.443 143.961C79.638 143.961 45.7481 153.956 45.7481 166.286C45.7481 178.616 79.638 188.611 121.443 188.611Z" fill="#292A2E"/>
<path d="M148.377 223.571H95.3948C90.376 223.571 86.3075 227.63 86.3075 232.637V258.205C86.3075 263.211 90.376 267.27 95.3948 267.27H148.377C153.396 267.27 157.464 263.211 157.464 258.205V232.637C157.464 227.63 153.396 223.571 148.377 223.571Z" fill="#292A2E"/>
<path d="M116.145 246.237H112.995C112.995 242.097 114.875 236.392 123.832 232.722C129.079 230.573 127.342 222.629 127.323 222.549L130.393 221.846C130.493 222.278 132.751 232.465 125.029 235.627C119.134 238.042 116.145 241.613 116.145 246.237Z" fill="#367CFF"/>
<path d="M144.405 269.108C141.342 263.378 140.064 263.492 134.674 263.969C132.919 264.125 130.735 264.319 128.07 264.319C116.138 264.319 114.897 255.656 114.885 255.569L118.009 255.173L116.447 255.371L118.008 255.158C118.044 255.404 118.998 261.177 128.069 261.177C130.594 261.177 132.614 260.997 134.394 260.84C140.458 260.301 143.303 260.369 147.183 267.629L144.405 269.108Z" fill="#367CFF"/>
<path d="M107.995 247.847C107.888 247.847 107.782 247.821 107.686 247.772L104.281 246.021C104.122 245.939 104.002 245.798 103.948 245.628C103.894 245.457 103.909 245.273 103.991 245.114C104.074 244.955 104.216 244.836 104.386 244.781C104.557 244.727 104.742 244.743 104.901 244.825L108.306 246.575C108.44 246.644 108.548 246.757 108.611 246.894C108.674 247.032 108.689 247.186 108.653 247.333C108.617 247.48 108.533 247.611 108.413 247.704C108.294 247.797 108.147 247.848 107.995 247.847V247.847Z" fill="white"/>
<path d="M103.882 254.511C103.724 254.511 103.572 254.455 103.451 254.355C103.33 254.254 103.249 254.114 103.22 253.96C103.192 253.805 103.218 253.646 103.295 253.509C103.372 253.372 103.495 253.266 103.642 253.209L107.222 251.85C107.387 251.796 107.566 251.807 107.723 251.881C107.88 251.956 108.002 252.087 108.064 252.249C108.126 252.411 108.123 252.59 108.055 252.75C107.988 252.91 107.862 253.037 107.703 253.107L104.122 254.467C104.045 254.496 103.964 254.511 103.882 254.511Z" fill="white"/>
<path d="M125.415 251.744C125.246 251.743 125.083 251.68 124.958 251.566C124.834 251.451 124.757 251.294 124.743 251.126C124.729 250.958 124.779 250.791 124.883 250.657C124.986 250.524 125.136 250.435 125.303 250.406L129.083 249.77C129.259 249.741 129.439 249.783 129.585 249.886C129.73 249.99 129.828 250.146 129.858 250.322C129.887 250.497 129.846 250.677 129.743 250.823C129.64 250.968 129.484 251.067 129.308 251.097L125.528 251.734C125.491 251.74 125.453 251.744 125.415 251.744V251.744Z" fill="white"/>
<path d="M122.651 247.182C122.53 247.182 122.411 247.15 122.308 247.089C122.204 247.027 122.118 246.939 122.06 246.834C122.002 246.728 121.973 246.609 121.976 246.489C121.98 246.369 122.016 246.252 122.08 246.15L124.125 242.918C124.171 242.841 124.233 242.774 124.305 242.722C124.378 242.669 124.46 242.631 124.547 242.61C124.635 242.59 124.725 242.587 124.814 242.601C124.903 242.616 124.987 242.648 125.063 242.696C125.139 242.744 125.205 242.806 125.256 242.88C125.308 242.953 125.344 243.036 125.363 243.123C125.382 243.211 125.383 243.301 125.367 243.389C125.35 243.477 125.316 243.561 125.267 243.636L123.222 246.868C123.161 246.964 123.076 247.043 122.977 247.098C122.877 247.153 122.765 247.182 122.651 247.182Z" fill="white"/>
<path d="M161.179 243.886C154.627 243.886 149.16 242.1 144.887 238.556C136.992 232.006 136.145 221.898 136.112 221.471L139.253 221.235L137.683 221.354L139.253 221.233C139.26 221.323 140.055 230.48 146.924 236.16C151.424 239.879 157.558 241.346 165.169 240.519L165.51 243.643C164.072 243.802 162.626 243.883 161.179 243.886V243.886Z" fill="#367CFF"/>
<path d="M79.0588 263.414L78.4769 260.325C90.553 258.06 90.544 253.049 90.5337 247.246C90.5269 243.338 90.5188 238.909 95.1338 236.319C103.717 231.502 103.03 220.584 103.022 220.474L106.163 220.238C106.203 220.766 107.032 233.247 96.6782 239.057C93.8176 240.663 93.6763 243.212 93.6835 247.24C93.6943 253.222 93.7074 260.666 79.0588 263.414Z" fill="#367CFF"/>
<path d="M172.143 173.251C172.083 173.251 172.023 173.245 171.963 173.233C168.554 172.549 162.121 169.642 162.179 163.53C162.174 162.332 162.46 161.151 163.011 160.087C163.563 159.022 164.364 158.107 165.346 157.417C164.341 155.559 164.043 153.4 164.509 151.34C165.795 144.655 172.541 143.484 175.93 143.801C176.167 143.824 176.385 143.939 176.537 144.122C176.688 144.305 176.761 144.541 176.739 144.777C176.718 145.014 176.603 145.232 176.42 145.384C176.237 145.536 176.001 145.61 175.764 145.589C175.432 145.558 167.575 144.932 166.276 151.678C165.893 153.306 166.111 155.018 166.89 156.499C170.23 154.891 174.806 154.883 176.907 156.485C177.328 156.772 177.655 157.176 177.849 157.646C178.044 158.117 178.096 158.633 178 159.133C177.58 161.319 175.007 162.41 171.75 161.786C169.7 161.413 167.824 160.392 166.4 158.874C165.646 159.398 165.031 160.098 164.609 160.912C164.188 161.726 163.971 162.631 163.979 163.548C163.921 169.698 172.236 171.457 172.319 171.474C172.538 171.518 172.733 171.641 172.866 171.82C172.999 171.999 173.06 172.221 173.038 172.443C173.016 172.665 172.912 172.87 172.746 173.02C172.581 173.169 172.365 173.252 172.142 173.252L172.143 173.251ZM168.022 157.957C169.158 159.013 170.568 159.729 172.092 160.022C174.239 160.432 176.021 159.905 176.235 158.794C176.267 158.621 176.244 158.443 176.169 158.284C176.093 158.126 175.97 157.995 175.816 157.91C174.457 156.873 170.916 156.705 168.022 157.957Z" fill="white"/>
<path d="M95.2202 166.508C95.0313 166.508 94.8472 166.449 94.694 166.339C94.5408 166.229 94.4262 166.073 94.3665 165.894C94.3067 165.716 94.3049 165.523 94.3612 165.343C94.4175 165.163 94.5291 165.005 94.6803 164.892C94.8742 164.746 99.405 161.262 96.8289 157.034C96.2765 156.047 95.4096 155.273 94.3657 154.834C93.2408 157.393 90.697 159.637 88.6991 159.805C88.2781 159.86 87.8499 159.793 87.467 159.609C87.0842 159.426 86.7633 159.135 86.5437 158.772C86.2973 158.345 86.1723 157.859 86.1823 157.366C86.1923 156.873 86.3368 156.392 86.6004 155.975C87.6034 154.147 90.0981 152.781 92.5312 152.727C92.7336 152.723 92.9361 152.727 93.1341 152.74C93.247 152.13 93.216 151.502 93.0433 150.906C92.8707 150.31 92.5613 149.762 92.1397 149.306C89.1797 145.981 83.8348 149.097 83.7817 149.129C83.6802 149.189 83.5677 149.229 83.4508 149.246C83.3338 149.263 83.2146 149.257 83.1001 149.228C82.9855 149.199 82.8778 149.148 82.783 149.077C82.6883 149.007 82.6084 148.918 82.5479 148.817C82.4874 148.716 82.4475 148.603 82.4305 148.487C82.4135 148.37 82.4197 148.251 82.4487 148.137C82.4778 148.023 82.5291 147.915 82.5998 147.821C82.6704 147.726 82.7591 147.646 82.8606 147.586C83.1306 147.425 89.5491 143.691 93.4851 148.113C94.0954 148.779 94.5411 149.577 94.7864 150.446C95.0318 151.314 95.07 152.227 94.898 153.113C96.3618 153.684 97.5858 154.738 98.3669 156.099C101.112 160.6 97.8612 164.757 95.7602 166.326C95.605 166.444 95.4153 166.508 95.2202 166.508V166.508ZM92.5204 154.526C90.5616 154.589 88.7783 155.746 88.1776 156.84C88.0722 156.983 88.0076 157.152 87.9905 157.328C87.9735 157.505 88.0047 157.683 88.0809 157.843C88.1259 157.919 88.205 158.042 88.5497 158.017C89.6778 157.924 91.5304 156.428 92.5195 154.526H92.5204Z" fill="white"/>
<path d="M193.767 91.7591C198.374 124.258 167.803 144.523 127.356 150.229C86.91 155.934 51.9061 144.921 47.2992 112.419C42.6923 79.918 70.227 38.2367 110.673 32.5314C151.119 26.8261 189.16 59.2578 193.767 91.7591Z" fill="#367CFF"/>
<path d="M154.966 57.0046L113.31 62.8803C100.252 64.7221 91.1637 76.7744 93.01 89.8C94.8562 102.826 106.938 111.892 119.995 110.05L161.652 104.174C174.709 102.333 183.798 90.2803 181.952 77.2547C180.105 64.2292 168.024 55.1629 154.966 57.0046Z" fill="white"/>
<path d="M107.09 7.38086L103.86 7.99844L110.099 40.4671L113.329 39.8496L107.09 7.38086Z" fill="#367CFF"/>
<path d="M105.937 16.0875C109.257 16.0875 111.948 13.4029 111.948 10.0913C111.948 6.77973 109.257 4.09515 105.937 4.09515C102.617 4.09515 99.9261 6.77973 99.9261 10.0913C99.9261 13.4029 102.617 16.0875 105.937 16.0875Z" fill="#292A2E"/>
<path d="M128.499 95.2406C127.914 95.2407 127.346 95.0507 126.879 94.6992L109.19 81.4272C108.901 81.2165 108.658 80.9507 108.473 80.6454C108.289 80.3401 108.167 80.0012 108.114 79.6484C108.062 79.2957 108.08 78.9361 108.168 78.5905C108.257 78.2449 108.413 77.9202 108.627 77.6352C108.842 77.3502 109.112 77.1107 109.42 76.9304C109.729 76.7501 110.07 76.6328 110.424 76.5851C110.778 76.5374 111.139 76.5604 111.484 76.6527C111.829 76.745 112.153 76.9048 112.436 77.1228L130.124 90.3958C130.577 90.7352 130.912 91.2085 131.081 91.7486C131.25 92.2886 131.244 92.868 131.064 93.4045C130.885 93.941 130.54 94.4074 130.08 94.7375C129.619 95.0677 129.066 95.2448 128.499 95.2437V95.2406Z" fill="#292A2E"/>
<path d="M113.001 97.4262C112.5 97.4258 112.008 97.2861 111.582 97.0226C111.155 96.7592 110.811 96.3824 110.587 95.9347C110.363 95.4869 110.269 94.9858 110.315 94.4876C110.36 93.9893 110.544 93.5136 110.846 93.1138L124.152 75.4683C124.585 74.9039 125.224 74.533 125.929 74.4364C126.635 74.3398 127.35 74.5252 127.92 74.9524C128.489 75.3796 128.866 76.0139 128.968 76.717C129.071 77.4202 128.891 78.1353 128.467 78.7065L115.161 96.352C114.909 96.6862 114.583 96.9572 114.208 97.1437C113.833 97.3301 113.42 97.4269 113.001 97.4262Z" fill="#292A2E"/>
<path d="M166.912 89.8213C166.328 89.8214 165.759 89.6313 165.292 89.2799L147.604 76.0065C147.319 75.7947 147.078 75.5287 146.896 75.2238C146.713 74.9189 146.594 74.581 146.543 74.2297C146.492 73.8784 146.511 73.5205 146.599 73.1767C146.688 72.8328 146.843 72.5097 147.057 72.2261C147.271 71.9424 147.539 71.7037 147.846 71.5237C148.152 71.3437 148.492 71.2259 148.844 71.1772C149.197 71.1285 149.555 71.1497 149.9 71.2397C150.244 71.3297 150.567 71.4867 150.85 71.7017L168.538 84.9751C168.992 85.3145 169.327 85.7878 169.496 86.3279C169.664 86.8679 169.659 87.4473 169.479 87.9838C169.299 88.5203 168.954 88.9867 168.494 89.3168C168.033 89.647 167.48 89.8241 166.913 89.823L166.912 89.8213Z" fill="#292A2E"/>
<path d="M151.415 92.0078C150.914 92.0074 150.422 91.8677 149.996 91.6043C149.569 91.3409 149.225 90.9642 149.001 90.5164C148.777 90.0687 148.683 89.5675 148.729 89.0692C148.774 88.5709 148.958 88.0952 149.26 87.6953L162.566 70.0498C162.996 69.479 163.636 69.1021 164.345 69.0021C165.054 68.9021 165.774 69.0871 166.346 69.5165C166.918 69.9459 167.296 70.5845 167.397 71.2918C167.497 71.9991 167.311 72.7172 166.881 73.288L153.575 90.9336C153.323 91.2677 152.997 91.5387 152.622 91.7252C152.248 91.9117 151.834 92.0084 151.415 92.0078V92.0078Z" fill="#292A2E"/>
<path d="M141.221 117.417C142.033 116.344 143.135 115.523 144.397 115.051C145.659 114.578 147.03 114.473 148.35 114.748C149.67 115.022 150.884 115.666 151.851 116.602C152.819 117.539 153.499 118.731 153.814 120.039C153.871 120.27 153.882 120.51 153.845 120.746C153.809 120.981 153.727 121.207 153.602 121.411C153.478 121.615 153.315 121.792 153.122 121.932C152.929 122.072 152.71 122.173 152.477 122.229C152.245 122.284 152.004 122.293 151.768 122.256C151.532 122.218 151.306 122.134 151.103 122.009C150.9 121.883 150.723 121.719 150.584 121.526C150.444 121.332 150.345 121.113 150.291 120.881C150.184 120.437 149.99 120.018 149.721 119.648C149.452 119.278 149.112 118.964 148.721 118.725C148.331 118.487 147.897 118.327 147.444 118.255C146.992 118.183 146.529 118.201 146.084 118.308C145.638 118.415 145.218 118.608 144.847 118.876C144.477 119.145 144.162 119.484 143.923 119.873C143.683 120.263 143.523 120.696 143.451 121.147C143.38 121.599 143.398 122.06 143.504 122.504C143.613 122.969 143.533 123.458 143.281 123.864C143.03 124.27 142.628 124.56 142.162 124.672C141.697 124.783 141.207 124.706 140.798 124.458C140.389 124.21 140.096 123.81 139.981 123.347C139.761 122.441 139.723 121.5 139.87 120.58C140.017 119.659 140.345 118.777 140.836 117.984C140.955 117.788 141.084 117.599 141.221 117.417Z" fill="#292A2E"/>
</g>
<defs>
<clipPath id="clip0_12_2">
<rect width="270" height="318" fill="white"/>
</clipPath>
</defs>
</svg>
