<svg id="visual" viewBox="0 0 1920 1080" width="1920" height="1080" xmlns="http://www.w3.org/2000/svg" xmlns:xlink="http://www.w3.org/1999/xlink" version="1.1"><rect x="0" y="0" width="1920" height="1080" fill="#ffffff"></rect><defs><linearGradient id="grad1_0" x1="43.8%" y1="0%" x2="100%" y2="100%"><stop offset="14.444444444444446%" stop-color="#ffffff" stop-opacity="1"></stop><stop offset="85.55555555555554%" stop-color="#ffffff" stop-opacity="1"></stop></linearGradient></defs><defs><linearGradient id="grad2_0" x1="0%" y1="0%" x2="56.3%" y2="100%"><stop offset="14.444444444444446%" stop-color="#ffffff" stop-opacity="1"></stop><stop offset="85.55555555555554%" stop-color="#ffffff" stop-opacity="1"></stop></linearGradient></defs><g transform="translate(1920, 0)"><path d="M0 378C-65.7 367.9 -131.3 357.7 -189 327.4C-246.7 297 -296.3 246.4 -326.5 188.5C-356.7 130.6 -367.3 65.3 -378 0L0 0Z" fill="#8FE3CF"></path></g><g transform="translate(0, 1080)"><path d="M0 -378C54.4 -348.4 108.7 -318.8 168 -291C227.3 -263.2 291.5 -237.2 327.4 -189C363.2 -140.8 370.6 -70.4 378 0L0 0Z" fill="#8FE3CF"></path></g></svg>